<?xml version="1.0" encoding="utf-8"?>
<!-- Generator: Adobe Illustrator 23.0.3, SVG Export Plug-In . SVG Version: 6.00 Build 0)  -->
<svg version="1.1" id="Слой_1" xmlns="http://www.w3.org/2000/svg" xmlns:xlink="http://www.w3.org/1999/xlink" x="0px" y="0px"
	 viewBox="0 0 17 17" style="enable-background:new 0 0 17 17;" xml:space="preserve">
<style type="text/css">
	.st0{fill:#FF8E20;}
	.st1{fill:#FFFFFF;}
</style>
<g id="Group_1" transform="translate(0 -102.867)">
	<path id="Rectangle_4" class="st0" d="M2,102.9h13c1.1,0,2,0.9,2,2v13c0,1.1-0.9,2-2,2H2c-1.1,0-2-0.9-2-2v-13
		C0,103.8,0.9,102.9,2,102.9z"/>
	<path class="st1" d="M7.1,114.7L4,111.6c-0.3-0.3-0.3-0.8,0-1.1s0.8-0.3,1.1,0l2,2l5.6-5.6c0.3-0.3,0.8-0.3,1.1,0s0.3,0.8,0,1.1
		L7.1,114.7z"/>
</g>
</svg>
