<svg xmlns="http://www.w3.org/2000/svg" viewBox="0 0 511 462.66"><defs><style>.cls-1{fill:#ffc26d;}.cls-2{fill:#ff9a1b;}.cls-3{fill:#fa8916;}.cls-4{fill:#ffdbaa;}.cls-5{fill:#ffb54e;}.cls-6{fill:#efe2dd;}.cls-7{fill:#cdbfbb;}.cls-8{fill:#fff5f5;}.cls-9{fill:#ffce8b;}</style></defs><title>star</title><g id="Слой_2" data-name="Слой 2"><g id="Слой_1-2" data-name="Слой 1"><path class="cls-1" d="M235.31,220.31h40.38v123.6H235.31Z"/><path class="cls-2" d="M275.69,220.31v34.23a52.71,52.71,0,0,1-40.38,0V220.31Z"/><path class="cls-3" d="M375.41,379.68a7.71,7.71,0,0,1-3.27-14.7c33.37-15.54,57.94-37.48,73-65.2,12.11-22.24,18.27-48.37,18.31-77.66.07-50.67-18.42-93.66-18.61-94.09A7.71,7.71,0,1,1,459,121.85c.81,1.85,19.86,46,19.91,99.81,0,50.44-17.32,118.68-100.26,157.3A7.66,7.66,0,0,1,375.41,379.68Z"/><path class="cls-4" d="M452.26,65.93c8.47,24.5,10.72,60.12-.36,63.95s-31.29-25.6-39.75-50.1-2-34.81,9.1-38.63S443.8,41.42,452.26,65.93Z"/><path class="cls-1" d="M451.9,129.88c-2.58.89-5.66,0-9-2.26,3.54-12.86.68-37.28-5.63-55.54-6.69-19.37-15.26-26-24-26a19.67,19.67,0,0,1,8-4.92c11.08-3.81,22.55.28,31,24.78S463,126.06,451.9,129.88Z"/><path class="cls-5" d="M471.61,225c-5.12,3.78-15.73-1-26.82-9.44a139.54,139.54,0,0,1-26.11-26.46c-15.41-20.86-12.3-32.63-2.88-39.6,9.16-6.77,20.92-6.5,35.73,12.67.43.55.85,1.11,1.28,1.7C468.21,184.68,481,218,471.61,225Z"/><path class="cls-2" d="M471.61,225c-5.12,3.78-15.73-1-26.82-9.44a81.26,81.26,0,0,1-.52-14.8,152.14,152.14,0,0,1,7.26-38.59c.43.55.85,1.11,1.28,1.7C468.21,184.68,481,218,471.61,225Z"/><path class="cls-4" d="M466.86,161.88c-9.13,24.26-12.36,59.81-1.4,63.94s32-24.72,41.13-49,2.93-34.74-8-38.87S476,137.62,466.86,161.88Z"/><path class="cls-1" d="M506.59,176.84c-9.14,24.25-30.15,53.11-41.13,49-2.55-.95-4.33-3.63-5.45-7.45,10.95-7.54,24.44-28.28,31.28-46.43,7.2-19.13,4.87-29.69-1.82-35.32a19.78,19.78,0,0,1,9.08,1.34C509.52,142.1,515.72,152.57,506.59,176.84Z"/><path class="cls-5" d="M445.15,329.45c-6.19,1.46-14.06-7.1-20.91-19.26a139.4,139.4,0,0,1-13.55-34.62c-5.93-25.23,1.57-34.83,13-37.51,11.1-2.61,21.8,2.28,27.84,25.76.17.66.34,1.34.5,2C457.94,291.1,456.56,326.76,445.15,329.45Z"/><path class="cls-2" d="M445.15,329.45c-6.19,1.46-14.06-7.1-20.91-19.26a80.14,80.14,0,0,1,5.35-13.8,152.46,152.46,0,0,1,21.92-32.57c.17.66.34,1.34.5,2C457.94,291.1,456.56,326.76,445.15,329.45Z"/><path class="cls-4" d="M465.69,269.61c-18,18.69-35,50.08-26.51,58.2s39.14-10.1,57.11-28.78,16.4-30.77,7.95-38.89S483.66,250.92,465.69,269.61Z"/><path class="cls-1" d="M496.29,299c-18,18.68-48.67,36.9-57.12,28.78A8,8,0,0,1,437,322.5c13-3.83,31.69-16.59,44.18-29.58,17.5-18.2,16.48-30.13,8.61-38.25,5.77-.58,10.51,1.68,14.45,5.47C512.69,268.26,514.26,280.35,496.29,299Z"/><path class="cls-3" d="M135.59,379.68a7.66,7.66,0,0,1-3.24-.72C49.41,340.33,32.05,272.1,32.09,221.66c0-53.82,19.1-98,19.91-99.82A7.71,7.71,0,0,1,66.13,128c-.18.43-18.68,43.42-18.61,94.09,0,29.29,6.2,55.42,18.31,77.66,15.09,27.72,39.66,49.66,73,65.2a7.71,7.71,0,0,1-3.27,14.7Z"/><path class="cls-4" d="M58.74,65.93c-8.47,24.5-10.72,60.12.36,63.95s31.29-25.6,39.75-50.1,2-34.81-9.1-38.63S67.2,41.42,58.74,65.93Z"/><path class="cls-1" d="M98.85,79.79c-8.46,24.5-28.67,53.92-39.75,50.09-2.72-.94-4.64-3.79-5.85-7.94C64,114.23,77.08,93,83.46,74.5S87.71,45.58,81.51,40a20.21,20.21,0,0,1,8.24,1.19C100.83,45,107.31,55.27,98.85,79.79Z"/><path class="cls-5" d="M39.4,225c5.11,3.78,15.72-1,26.81-9.44a139.54,139.54,0,0,0,26.11-26.46c15.41-20.86,12.3-32.63,2.88-39.6C86,142.7,74.28,143,59.47,162.14c-.43.55-.85,1.11-1.28,1.7C42.79,184.68,30,218,39.4,225Z"/><path class="cls-2" d="M92.32,189.07a139.54,139.54,0,0,1-26.11,26.46C55.12,224,44.51,228.75,39.4,225a7.83,7.83,0,0,1-2.78-4.69,70.65,70.65,0,0,0,14.05-8.65,139.59,139.59,0,0,0,26.12-26.46c15.16-20.52,12.39-32.25,3.32-39.25,5.66-1.34,10.68.29,15.09,3.55C104.62,156.44,107.73,168.21,92.32,189.07Z"/><path class="cls-2" d="M39.4,225c5.11,3.78,15.72-1,26.81-9.44a81.26,81.26,0,0,0,.52-14.8,152.14,152.14,0,0,0-7.26-38.59c-.43.55-.85,1.11-1.28,1.7C42.79,184.68,30,218,39.4,225Z"/><path class="cls-4" d="M44.14,161.88c9.13,24.26,12.36,59.81,1.4,63.94s-32-24.72-41.13-49-2.92-34.74,8-38.87S35,137.62,44.14,161.88Z"/><path class="cls-1" d="M45.54,225.82c-2.76,1-6.16,0-9.85-2.56,4-12.38.47-38.19-6.65-57.11C22.53,148.9,14.81,142,7,141a21.13,21.13,0,0,1,5.5-3c11-4.13,22.55-.34,31.68,23.91S56.51,221.69,45.54,225.82Z"/><path class="cls-5" d="M65.85,329.45c6.19,1.46,14.06-7.1,20.91-19.26a139.4,139.4,0,0,0,13.55-34.62c5.94-25.23-1.57-34.83-13-37.51-11.1-2.61-21.8,2.28-27.84,25.76-.17.66-.34,1.34-.5,2C53.06,291.1,54.44,326.76,65.85,329.45Z"/><path class="cls-2" d="M100.31,275.57a139.4,139.4,0,0,1-13.55,34.62C79.91,322.35,72,330.91,65.85,329.45c-2.91-.68-5.18-3.53-6.83-7.8,4-3.42,8.16-9.11,12-15.92a138.89,138.89,0,0,0,13.56-34.62c4.3-18.27,1.54-28.36-4.64-33.53a20.71,20.71,0,0,1,7.4.48C98.74,240.74,106.25,250.34,100.31,275.57Z"/><path class="cls-2" d="M65.85,329.45c6.19,1.46,14.06-7.1,20.91-19.26a80.14,80.14,0,0,0-5.35-13.8,152.46,152.46,0,0,0-21.92-32.57c-.17.66-.34,1.34-.5,2C53.06,291.1,54.44,326.76,65.85,329.45Z"/><path class="cls-4" d="M45.31,269.61c18,18.69,35,50.08,26.51,58.2S32.68,317.71,14.71,299s-16.4-30.77-8-38.89S27.34,250.92,45.31,269.61Z"/><path class="cls-1" d="M71.83,327.81c-2.7,2.6-7.69,2.51-13.8.56,2.27-11.66-12.75-37.84-28.51-54.23-8.63-9-15.91-13.38-22.08-14.64,8.41-7.52,20.37-8.08,37.86,10.12C63.27,288.3,80.28,319.69,71.83,327.81Z"/><path class="cls-6" d="M377.31,340.07v93H133.69v-93A10.26,10.26,0,0,1,144,329.8h223.1A10.26,10.26,0,0,1,377.31,340.07Z"/><path class="cls-7" d="M377.31,340.07v93H353.69v-93a10.27,10.27,0,0,0-10.27-10.27H367A10.27,10.27,0,0,1,377.31,340.07Z"/><path class="cls-8" d="M419.11,462.66H91.89a10.27,10.27,0,0,1-10.26-10.27v-26a10.27,10.27,0,0,1,10.26-10.27H419.11a10.28,10.28,0,0,1,10.27,10.27v26A10.27,10.27,0,0,1,419.11,462.66Z"/><path class="cls-6" d="M429.38,426.36v26a10.28,10.28,0,0,1-10.27,10.27H396.43a10.27,10.27,0,0,0,10.27-10.27v-26a10.27,10.27,0,0,0-10.27-10.27h22.68A10.28,10.28,0,0,1,429.38,426.36Z"/><path class="cls-1" d="M297.18,379.68H213.82a7.71,7.71,0,1,1,0-15.42h83.36a7.71,7.71,0,0,1,0,15.42Z"/><path class="cls-4" d="M293.75,205.93a38.25,38.25,0,1,1-38.25-38.25A38.1,38.1,0,0,1,293.75,205.93Z"/><path class="cls-1" d="M293.75,205.93a38.1,38.1,0,0,1-9.06,24.72L255.5,215.3l-29.19,15.35a38.25,38.25,0,1,1,67.44-24.72Z"/><path class="cls-9" d="M373.5,101l-49.88,48.61,11.77,68.64a12.58,12.58,0,0,1-18.26,13.26l-61.63-32.4-61.63,32.4a12.58,12.58,0,0,1-18.26-13.27L182,181l5.4-31.48L137.5,101a12.58,12.58,0,0,1,7-21.46l68.91-10L244.21,7a12.59,12.59,0,0,1,22.58,0l30.82,62.45,23,3.34,45.95,6.68A12.58,12.58,0,0,1,373.5,101Z"/><path class="cls-5" d="M373.5,101l-49.88,48.61,11.77,68.64a12.58,12.58,0,0,1-18.26,13.26l-61.63-32.4-61.63,32.4a12.58,12.58,0,0,1-18.26-13.27L182,181c95.64-17.46,127.94-70,138.59-108.22l45.95,6.68A12.58,12.58,0,0,1,373.5,101Z"/></g></g></svg>